<?xml version="1.0" standalone="no"?>
<!DOCTYPE svg PUBLIC "-//W3C//DTD SVG 20010904//EN"
 "http://www.w3.org/TR/2001/REC-SVG-20010904/DTD/svg10.dtd">
<svg version="1.0" xmlns="http://www.w3.org/2000/svg"
 width="471.000000pt" height="238.000000pt" viewBox="0 0 471.000000 238.000000"
 preserveAspectRatio="xMidYMid meet">

<g transform="translate(0.000000,238.000000) scale(0.100000,-0.100000)"
fill="#000000" stroke="none">
<path d="M753 1675 c-167 -45 -290 -170 -339 -345 -18 -62 -17 -263 0 -321 34
-111 104 -216 180 -268 99 -68 278 -113 367 -93 28 7 62 12 77 12 14 0 63 18
109 40 91 44 103 44 142 -6 11 -14 31 -34 45 -45 l26 -20 30 31 c16 17 30 36
30 43 0 7 -22 35 -50 62 -27 27 -50 55 -50 63 0 7 11 33 26 57 29 50 69 171
79 239 8 50 -11 203 -26 212 -5 3 -9 14 -9 24 0 30 -67 149 -107 192 -49 50
-142 103 -218 122 -74 20 -241 20 -312 1z m314 -113 c153 -62 237 -201 236
-389 -1 -50 -6 -109 -13 -130 -20 -64 -49 -123 -62 -123 -12 0 -98 -87 -98
-99 0 -18 -128 -64 -191 -69 -201 -14 -364 101 -415 293 -18 65 -18 198 0 256
41 133 135 233 256 270 50 15 242 9 287 -9z"/>
<path d="M2520 1571 c-24 -7 -25 -11 -30 -101 l-5 -95 -65 -5 -65 -5 -3 -37
c-4 -42 -10 -39 93 -42 l40 -1 5 -230 c5 -235 11 -268 55 -335 35 -54 139 -83
222 -64 66 15 78 25 69 56 -12 46 -19 50 -68 38 -68 -17 -118 -1 -146 49 -21
37 -22 51 -22 259 l0 220 30 7 c17 4 65 5 108 3 l77 -3 3 42 3 42 -108 3 -108
3 -3 103 -3 102 -27 -1 c-15 -1 -38 -4 -52 -8z"/>
<path d="M1467 1374 c-4 -4 -7 -25 -7 -46 0 -38 0 -38 39 -38 74 0 71 8 71
-194 0 -166 2 -187 25 -250 28 -79 75 -134 145 -169 37 -18 61 -22 140 -21
105 0 127 8 200 69 41 34 45 35 57 19 7 -10 16 -32 19 -51 l6 -33 99 0 99 0 0
44 0 45 -52 3 -53 3 -5 310 -5 310 -115 0 -115 0 0 -40 0 -40 50 -5 c28 -3 56
-9 63 -13 17 -11 17 -299 0 -363 -27 -101 -117 -164 -233 -164 -91 0 -147 27
-183 90 -27 45 -27 47 -32 290 l-5 245 -101 3 c-55 1 -103 0 -107 -4z"/>
<path d="M2937 1374 c-4 -4 -7 -24 -7 -45 l0 -38 53 -3 52 -3 6 -170 c9 -265
25 -323 105 -393 40 -36 60 -45 160 -71 68 -18 219 30 264 83 23 29 39 18 42
-26 l3 -43 105 0 105 0 3 43 3 42 -53 0 c-30 0 -59 5 -66 12 -9 9 -12 79 -12
254 0 279 -1 274 81 274 l50 0 -3 43 -3 42 -105 0 -105 0 -5 -235 c-5 -216 -7
-238 -27 -275 -39 -74 -115 -115 -209 -115 -108 0 -188 51 -209 135 -4 17 -10
134 -14 260 l-6 230 -101 3 c-55 1 -103 0 -107 -4z"/>
<path d="M4122 1368 c-7 -7 -12 -24 -12 -40 0 -30 28 -52 54 -42 9 3 27 3 41
0 l25 -6 -2 -263 -3 -262 -55 -5 c-53 -5 -55 -6 -56 -35 -1 -16 3 -36 8 -42
14 -17 189 -18 206 -1 17 17 17 679 0 696 -8 8 -46 12 -103 12 -57 0 -95 -4
-103 -12z"/>
<path d="M3800 1015 l0 -175 168 2 167 3 3 173 2 172 -170 0 -170 0 0 -175z"/>
</g>
</svg>
