<?xml version="1.0" standalone="no"?>
<!DOCTYPE svg PUBLIC "-//W3C//DTD SVG 20010904//EN"
 "http://www.w3.org/TR/2001/REC-SVG-20010904/DTD/svg10.dtd">
<svg version="1.0" xmlns="http://www.w3.org/2000/svg"
 width="641.000000pt" height="225.000000pt" viewBox="0 0 641.000000 225.000000"
 preserveAspectRatio="xMidYMid meet">

<g transform="translate(0.000000,225.000000) scale(0.100000,-0.100000)"
fill="#000000" stroke="none">
<path d="M3597 1782 l-2137 -2 2 -668 3 -667 2140 0 2140 0 3 664 c1 366 -1
667 -5 670 -5 3 -970 5 -2146 3z m-1300 -247 c61 -18 107 -65 123 -126 18 -65
13 -69 -91 -69 -88 0 -92 1 -119 30 -23 25 -36 30 -74 30 -33 0 -52 -6 -67
-21 -36 -36 -8 -58 127 -105 138 -47 150 -53 184 -89 22 -23 25 -35 24 -95 -2
-109 -45 -167 -164 -219 -62 -27 -194 -43 -265 -31 -116 19 -188 83 -189 168
l-1 47 96 3 97 3 20 -34 c15 -26 29 -36 56 -41 48 -9 101 2 121 24 38 41 -3
77 -126 111 -174 48 -216 89 -206 201 6 70 29 112 85 155 87 66 254 92 369 58z
m2783 -22 c0 -14 -28 -173 -98 -563 l-17 -95 -93 -3 c-103 -3 -98 -8 -82 79
11 55 45 250 81 459 10 63 21 121 24 128 3 8 32 12 95 12 77 0 90 -2 90 -17z
m-2127 -167 c103 -37 108 -77 51 -373 -8 -46 -13 -92 -9 -103 6 -19 2 -20 -89
-20 -96 0 -96 0 -96 25 0 14 -1 25 -2 25 -2 0 -30 -14 -62 -30 -104 -53 -246
-38 -281 30 -17 33 -14 114 6 152 21 39 112 73 254 93 79 11 125 33 125 60 0
12 -7 28 -15 35 -22 18 -96 6 -117 -19 -14 -18 -27 -21 -102 -21 -96 0 -101 5
-63 60 44 66 134 98 277 99 47 0 102 -6 123 -13z m589 9 c2 -3 -3 -44 -11 -92
l-16 -88 -50 -5 c-28 -3 -60 -11 -72 -18 -41 -23 -68 -97 -91 -247 l-7 -50
-99 -3 c-90 -3 -97 -1 -92 15 5 18 32 169 62 348 22 136 13 125 110 125 l85 0
-6 -37 c-3 -21 -8 -49 -11 -63 -4 -19 2 -14 24 20 16 25 38 52 48 61 32 27
111 49 126 34z m512 -20 c26 -13 43 -30 53 -54 14 -33 13 -49 -12 -204 -15
-92 -25 -181 -23 -197 l5 -30 -94 0 c-93 0 -93 0 -93 25 0 29 -16 32 -41 9
-46 -42 -186 -58 -254 -30 -51 22 -68 55 -63 126 3 49 9 65 33 90 33 34 55 42
214 71 137 26 176 53 135 93 -28 28 -106 15 -127 -20 -6 -10 -33 -14 -98 -14
-89 0 -90 0 -83 23 18 58 68 99 152 123 68 20 245 13 296 -11z m360 -27 c3
-18 10 -82 16 -143 7 -60 14 -117 16 -125 3 -8 37 56 76 143 l72 157 88 0 c48
0 88 -2 88 -5 0 -3 -17 -38 -38 -78 -22 -40 -79 -148 -127 -242 -108 -209
-158 -286 -199 -311 -23 -14 -57 -19 -135 -22 -97 -4 -103 -3 -98 14 3 11 8
40 12 67 6 46 7 47 41 47 82 0 89 28 53 216 -11 60 -27 147 -35 194 -8 47 -17
93 -20 103 -5 15 4 17 90 17 l95 0 5 -32z m956 20 c0 -7 -7 -49 -15 -93 -39
-222 -65 -370 -65 -377 0 -5 -43 -8 -96 -8 l-97 0 7 38 c4 20 18 100 31 177
13 77 30 170 36 208 l12 67 93 0 c69 0 94 -3 94 -12z"/>
<path d="M2732 1049 c-49 -16 -65 -26 -72 -45 -16 -41 3 -64 51 -64 55 0 77
14 100 63 33 75 27 78 -79 46z"/>
<path d="M3814 1051 c-69 -22 -86 -37 -82 -75 3 -29 6 -31 46 -34 53 -4 88 17
108 63 28 69 18 76 -72 46z"/>
<path d="M1013 1203 c31 -2 83 -2 115 0 31 2 5 3 -58 3 -63 0 -89 -1 -57 -3z"/>
<path d="M912 1180 c0 -14 2 -19 5 -12 2 6 2 18 0 25 -3 6 -5 1 -5 -13z"/>
<path d="M953 1125 c0 -22 2 -30 4 -17 2 12 2 30 0 40 -3 9 -5 -1 -4 -23z"/>
<path d="M911 1074 c0 -11 3 -14 6 -6 3 7 2 16 -1 19 -3 4 -6 -2 -5 -13z"/>
<path d="M952 1060 c0 -14 2 -19 5 -12 2 6 2 18 0 25 -3 6 -5 1 -5 -13z"/>
</g>
</svg>
