<svg version="1.1" id="Layer_1" xmlns="http://www.w3.org/2000/svg" xmlns:xlink="http://www.w3.org/1999/xlink" x="0px" y="0px" viewBox="0 0 162.6 50" style="enable-background:new 0 0 162.6 50;" xml:space="preserve">
 <style type="text/css">
  .st0{fill:#53A5FF;}
	.st1{fill:#FF0057;}
	.st2{fill:#A34EFF;}
	.st3{fill:#111111;}
 </style>
 <g>
  <path class="st0" d="M152.1,0.1h4.5c1.1,0,2,0.9,2,2v4.5c0,1.7-2.1,2.6-3.3,1.4l-4.5-4.5C149.4,2.2,150.3,0.1,152.1,0.1z">
  </path>
  <path class="st1" d="M142.1,11h-3.3l0,0c-1.9,0-3.4-1.6-3.5-3.5l0,0l0,0l0,0l0,0V4.3V2c0-1.1-0.9-2-2-2h-4.5
		c-1.7,0-2.6,2.1-1.4,3.3l1.7,1.7l2.4,2.4l0.1,0.1l0.4,0.4l6.4,6.4l0.6,0.6l0.2,0.2l2.4,2.4l1.4,1.4c1.3,1.3,3.3,0.4,3.3-1.4V13
		c0-1.1-0.9-2-2-2C144.4,11,142.1,11,142.1,11z">
  </path>
  <path class="st2" d="M154.3,11H151l0,0c-1.9,0-3.4-1.6-3.5-3.5l0,0l0,0l0,0l0,0V4.3V2c0-1.1-0.9-2-2-2H141c-1.7,0-2.6,2.1-1.4,3.3
		l1.7,1.7l2.4,2.4l0.1,0.1l0.4,0.4l6.4,6.4l0.6,0.6l0.2,0.2l2.4,2.4l1.4,1.4c1.3,1.3,3.3,0.4,3.3-1.4V13c0-1.1-0.9-2-2-2
		C156.6,11,154.3,11,154.3,11z">
  </path>
  <path class="st3" d="M47.5,30.2h3.4v3h2.7v2.4h-2.7v5.9c0,1,0.6,1.7,1.7,1.7c0.6,0,0.9-0.1,1-0.1v2.1c-0.2,0.1-1.1,0.4-2.4,0.4
		c-2.8,0-3.7-1.8-3.7-4.1V30.2">
  </path>
  <path class="st3" d="M79.2,33.2h-3.4v12h3.5V38c0-1.4,0.8-2.4,2.1-2.4c1.5,0,2.1,1.1,2.1,2.4v7.2H87v-8c0-2.5-1.4-4.4-4.3-4.4
		c-2.4,0-3.2,1.4-3.4,1.8h-0.1L79.2,33.2L79.2,33.2z">
  </path>
  <path class="st3" d="M74.6,32.9c-3.1,0-3.8,1.7-4.1,2.3h-0.1v-2h-3.1v12h3.5v-6c0-2.5,1.7-3.7,3.8-3.7L74.6,32.9L74.6,32.9z">
  </path>
  <path class="st3" d="M43.5,36.6l2.2-1.5c-0.3-0.5-1.4-2.2-4.9-2.2c-2.5,0-4.7,1.4-4.7,3.7c0,2.1,1.6,3.2,3.3,3.7
		c0.6,0.2,1,0.3,1.5,0.5c1,0.3,1.7,0.6,1.7,1.3c0,0.6-0.7,1.1-2,1.1c-1.6,0-2.4-1-2.6-1.4l-2.4,1.3c0.2,0.6,1.5,2.5,5.2,2.5
		c2.8,0,5.2-1.2,5.2-3.8c0-2.2-1.6-3.2-3.4-3.8c-0.5-0.2-1-0.3-1.4-0.4c-0.9-0.2-1.7-0.5-1.7-1.3c0-0.6,0.6-1,1.6-1
		C42.7,35.4,43.2,36.3,43.5,36.6z">
  </path>
  <polygon class="st3" points="20.7,28 17.6,40.3 14.4,28 10.1,28 6.8,40.6 3.7,28 0,28 4.5,45.2 9,45.2 12.2,33 15.3,45.2 
		19.6,45.2 24,28 	">
  </polygon>
  <path class="st3" d="M34.9,39.3c0-3.2-1.9-6.4-6-6.4c-3.7,0-6,2.8-6,6.4s2.3,6.4,6.1,6.4c3.3,0,4.7-2,5-2.7l-2.3-1.4
		c-0.2,0.3-0.7,1.5-2.6,1.5c-1.5,0-2.5-1.2-2.7-2.9H35C34.9,40.3,34.9,39.3,34.9,39.3z M26.5,37.9c0.2-1.4,0.9-2.5,2.5-2.5
		c1.5,0,2.4,1.1,2.5,2.5H26.5z">
  </path>
  <path class="st3" d="M65.7,39.3c0-3.2-1.9-6.4-6-6.4c-3.7,0-6,2.8-6,6.4s2.3,6.4,6.1,6.4c3.3,0,4.7-2,5-2.7l-2.3-1.4
		c-0.2,0.3-0.7,1.5-2.6,1.5c-1.5,0-2.5-1.2-2.7-2.9h8.5C65.7,40.3,65.7,39.3,65.7,39.3z M57.2,37.9c0.2-1.4,0.9-2.5,2.5-2.5
		c1.5,0,2.4,1.1,2.5,2.5H57.2z">
  </path>
  <path class="st3" d="M135.1,30.2h3.4v3h2.7v2.4h-2.7v5.9c0,1,0.6,1.7,1.7,1.7c0.6,0,0.9-0.1,1-0.1v2.1c-0.2,0.1-1.1,0.4-2.4,0.4
		c-2.8,0-3.7-1.8-3.7-4.1V30.2">
  </path>
  <path class="st3" d="M99.4,28h-5.9v17.2h5.9c5.5,0,8.7-2.6,8.7-8.7C108.2,30.6,104.8,28,99.4,28z M99.2,42.4h-2V30.8h2
		c4.5,0,5.2,3,5.2,5.7C104.4,39.3,103.7,42.4,99.2,42.4z">
  </path>
  <rect x="155" y="28" class="st3" width="3.6" height="17.2">
  </rect>
  <path class="st3" d="M123.5,33.2v1.4h-0.1c-0.2-0.4-1-1.7-3.3-1.7c-3.7,0-5,3-5,6c0,3.1,1.4,6,5,6c2.3,0,3.1-1.4,3.3-1.7h0.1v1.4
		c0,1.7-1.2,2.7-2.5,2.7c-1.6,0-2.4-1-2.6-1.4c-0.3,0.2-2.3,1.4-2.3,1.4c0.2,0.5,1.3,2.7,5.1,2.7c4,0,5.9-2.5,5.9-6.1V33.2H123.5z
		 M121.1,42.4c-2,0-2.3-1.9-2.3-3.5c0-1.7,0.5-3.5,2.3-3.5c1.8,0,2.3,1.7,2.3,3.5C123.5,40.5,123.1,42.4,121.1,42.4z">
  </path>
  <path class="st3" d="M146.9,32.9c-3.2,0-4.4,1.7-4.7,2.1l2,1.5c0.3-0.5,1.1-1.2,2.5-1.2c1.5,0,2.5,0.7,2.5,2.1v0.2c0,0-1.4,0-1.5,0
		c-3.5,0-5.8,1.3-5.8,4.1c0,2.3,1.7,3.9,3.9,3.9c2.4,0,3.3-1.4,3.4-1.6h0.1c0,0.5,0,1.2,0,1.2h3.3v-7.6
		C152.6,34.3,149.9,32.9,146.9,32.9z M149.2,40.5c0,1.4-0.6,2.6-2.1,2.6c-1,0-1.7-0.6-1.7-1.6c0-1,0.7-1.7,2.5-1.7
		c0.1,0,1.4,0,1.4,0L149.2,40.5z">
  </path>
  <rect x="110" y="33.2" class="st3" width="3.6" height="12">
  </rect>
  <circle class="st3" cx="111.8" cy="29.7" r="1.9">
  </circle>
  <rect x="129.3" y="33.2" class="st3" width="3.6" height="12">
  </rect>
  <circle class="st3" cx="131" cy="29.7" r="1.9">
  </circle>
  <g>
   <path class="st2" d="M160.7,18.3h0.9v0.2h-0.3v0.8H161v-0.8h-0.3V18.3L160.7,18.3z">
   </path>
   <path class="st2" d="M161.6,18.3h0.2l0.2,0.7l0,0l0.2-0.7h0.2v1h-0.2v-0.6l0,0l-0.2,0.6H162l-0.2-0.6l0,0v0.6h-0.2V18.3
			L161.6,18.3z">
   </path>
  </g>
 </g>
</svg>